<svg xmlns="http://www.w3.org/2000/svg" width="160" height="160" viewBox="0 0 21.167 21.167"><path d="M9.789 7.011a5.16 5.291 0 0 1 5.16-5.291 5.16 5.291 0 0 1 5.159 5.291" style="fill:none;stroke:#d67a00;stroke-width:.79374996;stroke-linecap:square;stroke-linejoin:round;stroke-miterlimit:28;stroke-dasharray:none;paint-order:markers stroke fill"/><path d="M12.17 7.011a2.646 2.646 0 0 1 2.646-2.646 2.646 2.646 0 0 1 2.646 2.646" style="fill:none;stroke:#d67a00;stroke-width:.79374996;stroke-linecap:square;stroke-linejoin:round;stroke-miterlimit:28;stroke-dasharray:none;paint-order:markers stroke fill"/><path d="M16.933 7.011h3.704M12.17 7.276v9.525M9.789 7.276l.001 9.525" style="fill:none;stroke:#d67a00;stroke-width:.79374996;stroke-linecap:round;stroke-linejoin:miter;stroke-dasharray:none;stroke-opacity:1"/><path d="M6.783 9.169v1.618" style="fill:none;stroke:#d67a00;stroke-width:.529167;stroke-linecap:round;stroke-linejoin:miter;stroke-dasharray:none;stroke-opacity:1" transform="matrix(1 0 0 -1 12.002 20.617)"/><path d="M6.783 11.648v.74" style="fill:none;stroke:#d67a00;stroke-width:.529169;stroke-linecap:round;stroke-linejoin:miter;stroke-dasharray:none;stroke-opacity:1" transform="matrix(1 0 0 -1 12.002 20.617)"/><path d="M6.783 9.169v1.618" style="fill:none;stroke:#d67a00;stroke-width:.529167;stroke-linecap:round;stroke-linejoin:miter;stroke-dasharray:none;stroke-opacity:1" transform="rotate(7.049 20.623 97.216)"/><path d="M6.783 11.648v.74" style="fill:none;stroke:#d67a00;stroke-width:.529169;stroke-linecap:round;stroke-linejoin:miter;stroke-dasharray:none;stroke-opacity:1" transform="rotate(7.049 20.623 97.216)"/><path d="M6.783 9.169v1.618" style="fill:none;stroke:#d67a00;stroke-width:.529167;stroke-linecap:round;stroke-linejoin:miter;stroke-dasharray:none;stroke-opacity:1" transform="scale(-1 1)rotate(7.049 .943 -207.704)"/><path d="M6.783 11.648v.74" style="fill:none;stroke:#d67a00;stroke-width:.529169;stroke-linecap:round;stroke-linejoin:miter;stroke-dasharray:none;stroke-opacity:1" transform="scale(-1 1)rotate(7.049 .943 -207.704)"/><rect width="13.228" height="2.381" x="7.408" y="17.33" ry="1.191" style="fill:none;stroke:#d67a00;stroke-width:.79374996;stroke-linecap:square;stroke-linejoin:round;stroke-miterlimit:28;stroke-dasharray:none;stroke-opacity:1;paint-order:markers stroke fill"/><rect width="1.852" height="4.139" x="3.319" y="2.214" ry="1.089" style="fill:none;fill-opacity:1;stroke:#d67a00;stroke-width:.79375;stroke-linecap:round;stroke-linejoin:round;stroke-miterlimit:2;stroke-dasharray:none;stroke-opacity:1;paint-order:markers stroke fill"/><path d="M2.907 6.441h2.764c.147 0 .236.142.264.311l.553 3.302c.028.17-.953.411-1.81.4l-1.118-.015c-.664-.009-1.59-.158-1.558-.326l.641-3.36c.032-.169.118-.312.264-.312" style="fill:none;stroke:#d67a00;stroke-width:.79375;stroke-linecap:round;stroke-linejoin:round;stroke-miterlimit:28;stroke-dasharray:none;paint-order:markers stroke fill"/><path d="M6.783 9.169v1.618" style="fill:none;stroke:#d67a00;stroke-width:.529167;stroke-linecap:round;stroke-linejoin:miter;stroke-dasharray:none;stroke-opacity:1" transform="matrix(1 0 0 -1 -2.537 24.056)"/><path d="M6.783 11.648v.74" style="fill:none;stroke:#d67a00;stroke-width:.529169;stroke-linecap:round;stroke-linejoin:miter;stroke-dasharray:none;stroke-opacity:1" transform="matrix(1 0 0 -1 -2.537 24.056)"/><path d="M6.783 9.169v1.618" style="fill:none;stroke:#d67a00;stroke-width:.529167;stroke-linecap:round;stroke-linejoin:miter;stroke-dasharray:none;stroke-opacity:1" transform="rotate(7.049 -14.565 -19.088)"/><path d="M6.783 11.648v.74" style="fill:none;stroke:#d67a00;stroke-width:.529169;stroke-linecap:round;stroke-linejoin:miter;stroke-dasharray:none;stroke-opacity:1" transform="rotate(7.049 -14.565 -19.088)"/><path d="M6.783 9.169v1.618" style="fill:none;stroke:#d67a00;stroke-width:.529167;stroke-linecap:round;stroke-linejoin:miter;stroke-dasharray:none;stroke-opacity:1" transform="scale(1 -1)rotate(-18.499 -68.444 14.828)"/><path d="M6.783 11.648v.74" style="fill:none;stroke:#d67a00;stroke-width:.529169;stroke-linecap:round;stroke-linejoin:miter;stroke-dasharray:none;stroke-opacity:1" transform="scale(1 -1)rotate(-18.499 -68.444 14.828)"/><path d="M6.783 9.169v1.618" style="fill:none;stroke:#d67a00;stroke-width:.529167;stroke-linecap:round;stroke-linejoin:miter;stroke-dasharray:none;stroke-opacity:1" transform="scale(-1 1)rotate(7 -19.705 -87.96)"/><path d="M6.783 11.648v.74" style="fill:none;stroke:#d67a00;stroke-width:.529169;stroke-linecap:round;stroke-linejoin:miter;stroke-dasharray:none;stroke-opacity:1" transform="scale(-1 1)rotate(7 -19.705 -87.96)"/><path d="M6.783 9.169v1.618" style="fill:none;stroke:#d67a00;stroke-width:.529167;stroke-linecap:round;stroke-linejoin:miter;stroke-dasharray:none;stroke-opacity:1" transform="rotate(161.501 6.651 11.893)"/><path d="M6.783 11.648v.74" style="fill:none;stroke:#d67a00;stroke-width:.529169;stroke-linecap:round;stroke-linejoin:miter;stroke-dasharray:none;stroke-opacity:1" transform="rotate(161.501 6.651 11.893)"/><path d="M3.073 4.63A2.444 2.181 0 0 1 1.877 2.18 2.444 2.181 0 0 1 4.24.535 2.444 2.181 0 0 1 6.612 2.17a2.444 2.181 0 0 1-1.185 2.456" style="fill:none;stroke:#d67a00;stroke-width:.79375;stroke-linecap:round;stroke-linejoin:round;stroke-miterlimit:28;stroke-dasharray:none;paint-order:markers stroke fill"/></svg>