<svg xmlns="http://www.w3.org/2000/svg" width="160" height="160" viewBox="0 0 21.167 21.167"><g style="stroke-width:.79517"><path d="M9.79 11.908a2.646 2.646 0 0 1 3.741 0M8.293 10.411a4.763 4.761 0 0 1 6.736 0" style="fill:none;stroke:#d67a00;stroke-width:.841552;stroke-linecap:round;stroke-linejoin:round;stroke-miterlimit:28;stroke-dasharray:none;paint-order:markers stroke fill" transform="matrix(1.2539 0 0 1.2613 -4.038 -3.433)"/><path d="M6.806 8.926a6.865 6.862 0 0 1 9.71 0" style="fill:none;stroke:#d67a00;stroke-width:.841552;stroke-linecap:round;stroke-linejoin:round;stroke-miterlimit:28;stroke-dasharray:none;paint-order:markers stroke fill" transform="matrix(1.2539 0 0 1.2613 -4.038 -3.433)"/><path d="M11.48-14.287a.794.794 0 0 1 .952.588.794.794 0 0 1-.58.956.794.794 0 0 1-.96-.574.794.794 0 0 1 .566-.964" style="fill:#d67a00;fill-opacity:1;stroke:none;stroke-width:.838189;stroke-linecap:round;stroke-linejoin:round;stroke-miterlimit:28;stroke-opacity:1;paint-order:markers stroke fill" transform="matrix(1.2539 0 0 -1.2613 -4.038 -3.433)"/></g></svg>