<svg xmlns="http://www.w3.org/2000/svg" width="160" height="160" viewBox="0 0 21.167 21.167"><rect width="12.171" height="2.117" x="5.292" y="5.122" ry="0" style="fill:none;fill-opacity:1;stroke:#d67a00;stroke-width:.529167;stroke-linecap:round;stroke-linejoin:round;stroke-miterlimit:2;stroke-dasharray:none;stroke-opacity:1;paint-order:markers stroke fill"/><rect width="12.171" height="14.288" x="5.292" y="4.924" ry="0" style="fill:none;fill-opacity:1;stroke:#d67a00;stroke-width:1.05833;stroke-linecap:round;stroke-linejoin:round;stroke-miterlimit:2;stroke-dasharray:none;stroke-opacity:1;paint-order:markers stroke fill"/><path d="M9.486 12.49a2.117 2.117 0 0 1 2.538 1.567 2.117 2.117 0 0 1-1.547 2.55 2.117 2.117 0 0 1-2.56-1.53 2.117 2.117 0 0 1 1.51-2.571" style="fill:none;stroke:#d67a00;stroke-width:.79374996;stroke-linecap:round;stroke-linejoin:round;stroke-miterlimit:28;stroke-dasharray:none;paint-order:markers stroke fill"/><path d="M13.782 14.58a1.058 1.06 0 0 1 1.27.784 1.058 1.06 0 0 1-.774 1.276 1.058 1.06 0 0 1-1.28-.765 1.058 1.06 0 0 1 .755-1.288" style="fill:none;stroke:#d67a00;stroke-width:.52916664;stroke-linecap:round;stroke-linejoin:round;stroke-miterlimit:28;stroke-dasharray:none;paint-order:markers stroke fill"/><path d="M6.629 15.346v2.163h9.525v-2.163" style="fill:none;stroke:#d67a00;stroke-width:.529167;stroke-linecap:butt;stroke-linejoin:round;stroke-dasharray:none;stroke-opacity:1"/><path d="M7.597 6.189h-.982" style="fill:none;stroke:#d67a00;stroke-width:.529166;stroke-linecap:round;stroke-linejoin:miter;stroke-dasharray:none;stroke-opacity:1"/><path d="M11.868 7.556h-.982" style="fill:none;stroke:#d67a00;stroke-width:1.05833327;stroke-linecap:round;stroke-linejoin:miter;stroke-dasharray:none;stroke-opacity:1"/></svg>