<svg xmlns="http://www.w3.org/2000/svg" width="160" height="160" viewBox="0 0 21.167 21.167"><g transform="translate(-1.816 1.31)"><rect width="8.996" height="15.87" x="2.346" y=".807" ry="0" style="fill:none;fill-opacity:1;stroke:#d67a00;stroke-width:1.05833;stroke-linecap:round;stroke-linejoin:round;stroke-miterlimit:2;stroke-dasharray:none;stroke-opacity:1;paint-order:markers stroke fill"/><g transform="translate(.487 .059)"><rect width="3.798" height="4.659" x="4.458" y="2.951" ry=".852" style="fill:none;fill-opacity:1;stroke:#d67a00;stroke-width:.529168;stroke-linecap:round;stroke-linejoin:round;stroke-miterlimit:2;stroke-dasharray:none;stroke-opacity:1;paint-order:markers stroke fill"/><path d="M7.15 4.262v.983" style="fill:none;stroke:#d67a00;stroke-width:.529166;stroke-linecap:round;stroke-linejoin:miter;stroke-dasharray:none;stroke-opacity:1"/><path d="M5.564 4.262v.983" style="fill:none;stroke:#d67a00;stroke-width:.529167;stroke-linecap:round;stroke-linejoin:miter;stroke-dasharray:none;stroke-opacity:1"/><path d="M6.267-6.628a.397.397 0 0 1 .476.293.397.397 0 0 1-.29.479.397.397 0 0 1-.48-.287.397.397 0 0 1 .283-.482" style="fill:#d67a00;fill-opacity:1;stroke:none;stroke-width:1.0541;stroke-linecap:round;stroke-linejoin:round;stroke-miterlimit:28;stroke-opacity:1;paint-order:markers stroke fill" transform="scale(1 -1)"/><g transform="translate(-2.063 4.765)"><rect width="3.798" height="4.659" x="6.52" y="4.992" ry=".852" style="fill:none;fill-opacity:1;stroke:#d67a00;stroke-width:.529168;stroke-linecap:round;stroke-linejoin:round;stroke-miterlimit:2;stroke-dasharray:none;stroke-opacity:1;paint-order:markers stroke fill"/><path d="M9.152 6.303v.982" style="fill:none;stroke:#d67a00;stroke-width:.529166;stroke-linecap:round;stroke-linejoin:miter;stroke-dasharray:none;stroke-opacity:1" transform="translate(.06)"/><path d="M7.567 6.303v.982" style="fill:none;stroke:#d67a00;stroke-width:.529167;stroke-linecap:round;stroke-linejoin:miter;stroke-dasharray:none;stroke-opacity:1" transform="translate(.06)"/><path d="M8.27-8.669a.397.397 0 0 1 .475.294.397.397 0 0 1-.29.478.397.397 0 0 1-.48-.287.397.397 0 0 1 .283-.482" style="fill:#d67a00;fill-opacity:1;stroke:none;stroke-width:1.0541;stroke-linecap:round;stroke-linejoin:round;stroke-miterlimit:28;stroke-opacity:1;paint-order:markers stroke fill" transform="matrix(1 0 0 -1 .06 0)"/></g></g></g><path d="M14.032 3.251h4.933c.26 0 .42.215.47.471l.987 5c.05.256-2.968.609-3.229.606l-1.995-.023c-.261-.003-2.838-.239-2.78-.493l1.143-5.09c.057-.254.21-.47.47-.47" style="fill:none;stroke:#d67a00;stroke-width:1.05833;stroke-linecap:round;stroke-linejoin:round;stroke-miterlimit:28;paint-order:markers stroke fill"/><rect width="5.112" height="6.906" x="13.864" y="10.471" ry=".471" style="fill:none;fill-opacity:1;stroke:#d67a00;stroke-width:1.05833;stroke-linecap:round;stroke-linejoin:round;stroke-miterlimit:28;stroke-dasharray:none;stroke-opacity:1;paint-order:markers stroke fill"/></svg>