<svg xmlns="http://www.w3.org/2000/svg" width="160" height="160" viewBox="0 0 21.167 21.167"><path d="M8.731 6.88a5.16 5.291 0 0 1 5.16-5.292 5.16 5.291 0 0 1 5.159 5.291" style="fill:none;stroke:#d67a00;stroke-width:1.05834;stroke-linecap:square;stroke-linejoin:round;stroke-miterlimit:28;stroke-dasharray:none;paint-order:markers stroke fill"/><path d="M11.112 6.88a2.646 2.646 0 0 1 2.646-2.647 2.646 2.646 0 0 1 2.646 2.646" style="fill:none;stroke:#d67a00;stroke-width:1.05833;stroke-linecap:square;stroke-linejoin:round;stroke-miterlimit:28;stroke-dasharray:none;paint-order:markers stroke fill"/><path d="M15.875 6.88h3.704M11.112 7.144l.001 9.525" style="fill:none;stroke:#d67a00;stroke-width:1.05833;stroke-linecap:round;stroke-linejoin:miter;stroke-dasharray:none;stroke-opacity:1"/><path d="m8.731 7.144.002 9.525" style="fill:none;stroke:#d67a00;stroke-width:1.05832;stroke-linecap:round;stroke-linejoin:miter;stroke-dasharray:none;stroke-opacity:1"/><path d="M6.783 9.169v1.618" style="fill:none;stroke:#d67a00;stroke-width:.529167;stroke-linecap:round;stroke-linejoin:miter;stroke-dasharray:none;stroke-opacity:1" transform="matrix(1 0 0 -1 10.944 20.485)"/><path d="M6.783 11.648v.74" style="fill:none;stroke:#d67a00;stroke-width:.529169;stroke-linecap:round;stroke-linejoin:miter;stroke-dasharray:none;stroke-opacity:1" transform="matrix(1 0 0 -1 10.944 20.485)"/><path d="M6.783 9.169v1.618" style="fill:none;stroke:#d67a00;stroke-width:.529167;stroke-linecap:round;stroke-linejoin:miter;stroke-dasharray:none;stroke-opacity:1" transform="rotate(7.049 21.168 88.564)"/><path d="M6.783 11.648v.74" style="fill:none;stroke:#d67a00;stroke-width:.529169;stroke-linecap:round;stroke-linejoin:miter;stroke-dasharray:none;stroke-opacity:1" transform="rotate(7.049 21.168 88.564)"/><path d="M6.783 9.169v1.618" style="fill:none;stroke:#d67a00;stroke-width:.529167;stroke-linecap:round;stroke-linejoin:miter;stroke-dasharray:none;stroke-opacity:1" transform="scale(-1 1)rotate(7.049 2.546 -199.185)"/><path d="M6.783 11.648v.74" style="fill:none;stroke:#d67a00;stroke-width:.529169;stroke-linecap:round;stroke-linejoin:miter;stroke-dasharray:none;stroke-opacity:1" transform="scale(-1 1)rotate(7.049 2.546 -199.185)"/><rect width="17.992" height="2.381" x="1.587" y="17.198" ry="1.191" style="fill:none;stroke:#d67a00;stroke-width:1.05833;stroke-linecap:square;stroke-linejoin:round;stroke-miterlimit:28;stroke-dasharray:none;stroke-opacity:1;paint-order:markers stroke fill"/><path d="m5.423 15.61.002.926" style="fill:none;stroke:#d67a00;stroke-width:1.05833;stroke-linecap:round;stroke-linejoin:miter;stroke-dasharray:none;stroke-opacity:1" transform="translate(-.066)"/><path d="m3.307 15.61.001.926" style="fill:none;stroke:#d67a00;stroke-width:1.05832;stroke-linecap:round;stroke-linejoin:miter;stroke-dasharray:none;stroke-opacity:1" transform="translate(-.066)"/><rect width="5.424" height="2.381" x="1.587" y="12.965" ry="1.191" style="fill:none;stroke:#d67a00;stroke-width:1.05833;stroke-linecap:square;stroke-linejoin:round;stroke-miterlimit:28;stroke-dasharray:none;stroke-opacity:1;paint-order:markers stroke fill"/><g transform="translate(11.31)"><path d="m5.423 15.61.002.926" style="fill:none;stroke:#d67a00;stroke-width:1.05833;stroke-linecap:round;stroke-linejoin:miter;stroke-dasharray:none;stroke-opacity:1" transform="translate(-.066)"/><path d="m3.307 15.61.001.926" style="fill:none;stroke:#d67a00;stroke-width:1.05832;stroke-linecap:round;stroke-linejoin:miter;stroke-dasharray:none;stroke-opacity:1" transform="translate(-.066)"/><rect width="5.424" height="2.381" x="1.587" y="12.965" ry="1.191" style="fill:none;stroke:#d67a00;stroke-width:1.05833;stroke-linecap:square;stroke-linejoin:round;stroke-miterlimit:28;stroke-dasharray:none;stroke-opacity:1;paint-order:markers stroke fill"/></g></svg>