<svg xmlns="http://www.w3.org/2000/svg" width="160" height="160" viewBox="0 0 21.167 21.167"><path d="M3.969-12.965a5.16 5.291 0 0 1 5.16-5.291 5.16 5.291 0 0 1 5.158 5.291" style="fill:none;stroke:#d67a00;stroke-width:1.05834;stroke-linecap:square;stroke-linejoin:round;stroke-miterlimit:28;stroke-dasharray:none;paint-order:markers stroke fill" transform="scale(1 -1)"/><path d="M6.35-12.965a2.646 2.646 0 0 1 2.646-2.646 2.646 2.646 0 0 1 2.646 2.646" style="fill:none;stroke:#d67a00;stroke-width:1.05833;stroke-linecap:square;stroke-linejoin:round;stroke-miterlimit:28;stroke-dasharray:none;paint-order:markers stroke fill" transform="scale(1 -1)"/><path d="M14.684-10.318a5.16 5.291 0 0 1 5.16 5.291" style="fill:none;stroke:#d67a00;stroke-width:1.05834;stroke-linecap:square;stroke-linejoin:round;stroke-miterlimit:28;stroke-dasharray:none;paint-order:markers stroke fill" transform="matrix(-1 0 0 1 31.485 17.198)"/><path d="M14.552-7.673a2.646 2.646 0 0 1 2.646 2.646" style="fill:none;stroke:#d67a00;stroke-width:1.05833;stroke-linecap:square;stroke-linejoin:round;stroke-miterlimit:28;stroke-dasharray:none;paint-order:markers stroke fill" transform="matrix(-1 0 0 1 31.485 17.198)"/><path d="M11.112 12.965h3.705M3.175 11.377h3.704M17.462 6.35v3.704M19.58 2.381v16.577M12.17.53H.53M6.35 12.7V3.175" style="fill:none;stroke:#d67a00;stroke-width:1.05833;stroke-linecap:round;stroke-linejoin:miter;stroke-dasharray:none;stroke-opacity:1"/><path d="m3.969 12.7.001-9.525" style="fill:none;stroke:#d67a00;stroke-width:1.05832;stroke-linecap:round;stroke-linejoin:miter;stroke-dasharray:none;stroke-opacity:1"/><path d="m17.462 9.258 1.588.002" style="fill:none;stroke:#d67a00;stroke-width:1.05833;stroke-linecap:round;stroke-linejoin:miter;stroke-dasharray:none;stroke-opacity:1"/><path d="m17.462 6.878 1.588.001" style="fill:none;stroke:#d67a00;stroke-width:1.05832;stroke-linecap:round;stroke-linejoin:miter;stroke-dasharray:none;stroke-opacity:1"/><rect width="7.144" height="2.646" x="1.587" y=".529" ry="0" style="fill:none;stroke:#d67a00;stroke-width:1.05833;stroke-linecap:square;stroke-linejoin:round;stroke-miterlimit:28;stroke-dasharray:none;stroke-opacity:1;paint-order:markers stroke fill"/></svg>