<svg xmlns="http://www.w3.org/2000/svg" width="160" height="160" viewBox="0 0 21.167 21.167"><g transform="translate(-.502)"><rect width="6.879" height="2.117" x="3.148" y="5.027" ry="0" style="fill:none;fill-opacity:1;stroke:#d67a00;stroke-width:1.05833;stroke-linecap:round;stroke-linejoin:round;stroke-miterlimit:2;stroke-dasharray:none;stroke-opacity:1;paint-order:markers stroke fill"/><g transform="translate(0 -.232)"><rect width="6.879" height="8.467" x="3.148" y="7.376" ry="0" style="fill:none;fill-opacity:1;stroke:#d67a00;stroke-width:1.05833;stroke-linecap:round;stroke-linejoin:round;stroke-miterlimit:2;stroke-dasharray:none;stroke-opacity:1;paint-order:markers stroke fill"/><path d="M6.077 9.418a2.25 2.25 0 0 1 2.697 1.664 2.25 2.25 0 0 1-1.644 2.71 2.25 2.25 0 0 1-2.72-1.625 2.25 2.25 0 0 1 1.604-2.734" style="fill:none;stroke:#d67a00;stroke-width:.79375;stroke-linecap:round;stroke-linejoin:round;stroke-miterlimit:28;stroke-dasharray:none;paint-order:markers stroke fill"/></g></g><g transform="translate(8.493)"><rect width="6.879" height="2.117" x="3.148" y="5.027" ry="0" style="fill:none;fill-opacity:1;stroke:#d67a00;stroke-width:1.05833;stroke-linecap:round;stroke-linejoin:round;stroke-miterlimit:2;stroke-dasharray:none;stroke-opacity:1;paint-order:markers stroke fill"/><g transform="translate(0 -.232)"><rect width="6.879" height="8.467" x="3.148" y="7.376" ry="0" style="fill:none;fill-opacity:1;stroke:#d67a00;stroke-width:1.05833;stroke-linecap:round;stroke-linejoin:round;stroke-miterlimit:2;stroke-dasharray:none;stroke-opacity:1;paint-order:markers stroke fill"/><path d="M6.077 9.418a2.25 2.25 0 0 1 2.697 1.664 2.25 2.25 0 0 1-1.644 2.71 2.25 2.25 0 0 1-2.72-1.625 2.25 2.25 0 0 1 1.604-2.734" style="fill:none;stroke:#d67a00;stroke-width:.79375;stroke-linecap:round;stroke-linejoin:round;stroke-miterlimit:28;stroke-dasharray:none;paint-order:markers stroke fill"/></g></g></svg>