<svg xmlns="http://www.w3.org/2000/svg" width="160" height="160" viewBox="0 0 21.167 21.167"><path d="M-20.595 18.979a1.334 2.055 0 0 1-1.073-1.953 1.334 2.055 0 0 1 .994-2.05" style="fill:none;fill-opacity:1;stroke:#d67a00;stroke-width:1.10933;stroke-linecap:round;stroke-linejoin:round;stroke-miterlimit:28;stroke-dasharray:none;stroke-opacity:1;paint-order:markers stroke fill" transform="matrix(-.1077 -.99418 .86025 -.50987 0 0)"/><path d="M2.473 10.813c2.886-2.31 4.245-3.656 6.818-4.249 1.8-.39 3.25.159 4.804 1.665 1.446 1.612 1.4 3.35 1.03 5.073-2.087.846-2.752 1.321-6.484.84l-3.472-.903c-.5-.097-2.12-.345-2.997-.555-.697-.328-.551-1.224.301-1.87" style="fill:none;stroke:#d67a00;stroke-width:1.05833;stroke-linecap:round;stroke-linejoin:round;stroke-dasharray:none;stroke-opacity:1"/><path d="M5.153 8.104C4.563 7.069 3.982 6.48 3.802 5.61c-.118-.609.048-1.099.505-1.624.489-.489 1.011-.447 1.385-.086.449.465.555.668.409 1.93l-.274 1.174c-.03.169-.105.717-.169 1.013-.099.236-.308.374-.505.086" style="fill:none;stroke:#d67a00;stroke-width:1.05833;stroke-linecap:round;stroke-linejoin:round;stroke-dasharray:none;stroke-opacity:1"/></svg>