<svg xmlns="http://www.w3.org/2000/svg" width="160" height="160" viewBox="0 0 21.167 21.167"><rect width="14.875" height="14.877" x="1.058" y="1.058" ry="7.438" shape-rendering="geometricPrecision" style="fill:none;fill-opacity:1;stroke:#d67a00;stroke-width:1.05833;stroke-linecap:round;stroke-miterlimit:2;stroke-dasharray:none;stroke-opacity:1;paint-order:markers stroke fill"/><g style="stroke-width:1.07294;stroke-dasharray:none"><path d="M24.342 19.05a6.52 6.52 0 0 1-5.292 5.292" style="fill:none;fill-opacity:1;stroke:#d67a00;stroke-width:1.07294;stroke-linecap:round;stroke-miterlimit:2;stroke-dasharray:none;stroke-opacity:1;paint-order:markers stroke fill" transform="matrix(.73974 0 0 .73984 -4.618 -4.618)"/></g><path d="M11.823 9.476a3.93 3.93 0 0 1-2.349 2.349" style="fill:none;fill-opacity:1;stroke:#d67a00;stroke-width:.79375;stroke-linecap:round;stroke-miterlimit:2;stroke-dasharray:none;stroke-opacity:1;paint-order:markers stroke fill"/><g style="stroke-width:1.07294;stroke-dasharray:none"><path d="M24.342 19.05a6.52 6.52 0 0 1-5.292 5.292" style="fill:none;fill-opacity:1;stroke:#d67a00;stroke-width:1.07294;stroke-linecap:round;stroke-miterlimit:2;stroke-dasharray:none;stroke-opacity:1;paint-order:markers stroke fill" transform="matrix(-.73974 0 0 .73984 21.61 -4.618)"/></g><path d="M5.169 9.476a3.93 3.93 0 0 0 2.348 2.349" style="fill:none;fill-opacity:1;stroke:#d67a00;stroke-width:.79375;stroke-linecap:round;stroke-miterlimit:2;stroke-dasharray:none;stroke-opacity:1;paint-order:markers stroke fill"/><g style="stroke-width:1.07294;stroke-dasharray:none"><g style="stroke-width:1.07294;stroke-dasharray:none"><g style="stroke-width:1.07294;stroke-dasharray:none"><path d="M24.342 19.05a6.52 6.52 0 0 1-5.292 5.292" style="fill:none;fill-opacity:1;stroke:#d67a00;stroke-width:1.07294;stroke-linecap:round;stroke-miterlimit:2;stroke-dasharray:none;stroke-opacity:1;paint-order:markers stroke fill" transform="matrix(.73974 0 0 -.73984 -4.618 21.612)"/></g><path d="M22.225 19.05a5.31 5.31 0 0 1-3.175 3.175" style="fill:none;fill-opacity:1;stroke:#d67a00;stroke-width:1.07294;stroke-linecap:round;stroke-miterlimit:2;stroke-dasharray:none;stroke-opacity:1;paint-order:markers stroke fill" transform="matrix(.73974 0 0 -.73984 -4.618 21.612)"/></g><g style="stroke-width:1.07294;stroke-dasharray:none"><g style="stroke-width:1.07294;stroke-dasharray:none"><path d="M24.342 19.05a6.52 6.52 0 0 1-5.292 5.292" style="fill:none;fill-opacity:1;stroke:#d67a00;stroke-width:1.07294;stroke-linecap:round;stroke-miterlimit:2;stroke-dasharray:none;stroke-opacity:1;paint-order:markers stroke fill" transform="matrix(-.73974 0 0 -.73984 21.61 21.612)"/></g><path d="M22.225 19.05a5.31 5.31 0 0 1-3.175 3.175" style="fill:none;fill-opacity:1;stroke:#d67a00;stroke-width:1.07294;stroke-linecap:round;stroke-miterlimit:2;stroke-dasharray:none;stroke-opacity:1;paint-order:markers stroke fill" transform="matrix(-.73974 0 0 -.73984 21.61 21.612)"/></g></g><path d="M18.009 14.21a9.994 10.284 0 0 1-4.498 4.497M20.042 14.495a11.376 11.372 0 0 1-6.33 5.98" style="fill:none;stroke:#d67a00;stroke-width:.79374996;stroke-linecap:round;stroke-linejoin:round;stroke-miterlimit:28;stroke-dasharray:none;paint-order:markers stroke fill"/><path d="M12.772 17.072a9.252 9.26 0 0 1-3.098 1.852" style="fill:none;stroke:#d67a00;stroke-width:.79374996;stroke-linecap:round;stroke-linejoin:round;stroke-miterlimit:28;stroke-dasharray:none;paint-order:markers stroke fill" transform="rotate(-11.982)"/></svg>