<svg xmlns="http://www.w3.org/2000/svg" width="160" height="160" viewBox="0 0 21.167 21.167"><path d="M10.092 12.803h7.665c.406 0 .654.142.732.311l1.533 3.302c.079.17-2.644.411-5.017.4l-3.101-.015c-1.843-.009-4.41-.158-4.321-.326l1.777-3.361c.089-.168.326-.311.732-.311M11.166 8.599h5.443c.288 0 .464.142.52.31l1.089 3.303c.055.169-1.878.411-3.563.4l-2.203-.015c-1.308-.009-3.131-.158-3.068-.326l1.262-3.361c.063-.168.232-.311.52-.311" style="fill:none;stroke:#d67a00;stroke-width:.79375;stroke-linecap:round;stroke-linejoin:round;stroke-miterlimit:28;stroke-dasharray:none;paint-order:markers stroke fill"/><path d="M12.06 4.63h3.599c.19 0 .307.142.344.311l.72 3.302c.036.17-1.242.411-2.357.4l-1.456-.015c-.865-.009-2.07-.157-2.029-.326l.835-3.36c.041-.169.153-.312.343-.312" style="fill:none;stroke:#d67a00;stroke-width:.79375;stroke-linecap:round;stroke-linejoin:round;stroke-miterlimit:28;stroke-dasharray:none;paint-order:markers stroke fill"/><path d="M6.783 9.169v1.618" style="fill:none;stroke:#d67a00;stroke-width:.529167;stroke-linecap:round;stroke-linejoin:miter;stroke-dasharray:none;stroke-opacity:1" transform="translate(-2.537 4.284)"/><path d="M6.783 11.648v.74" style="fill:none;stroke:#d67a00;stroke-width:.529169;stroke-linecap:round;stroke-linejoin:miter;stroke-dasharray:none;stroke-opacity:1" transform="translate(-2.537 4.284)"/><path d="M6.783 9.169v1.618" style="fill:none;stroke:#d67a00;stroke-width:.529167;stroke-linecap:round;stroke-linejoin:miter;stroke-dasharray:none;stroke-opacity:1" transform="scale(1 -1)rotate(7 215.493 -33.259)"/><path d="M6.783 11.648v.74" style="fill:none;stroke:#d67a00;stroke-width:.529169;stroke-linecap:round;stroke-linejoin:miter;stroke-dasharray:none;stroke-opacity:1" transform="scale(1 -1)rotate(7 215.493 -33.259)"/><path d="M6.783 9.169v1.618" style="fill:none;stroke:#d67a00;stroke-width:.529167;stroke-linecap:round;stroke-linejoin:miter;stroke-dasharray:none;stroke-opacity:1" transform="rotate(-18.499 18.568 28.998)"/><path d="M6.783 11.648v.74" style="fill:none;stroke:#d67a00;stroke-width:.529169;stroke-linecap:round;stroke-linejoin:miter;stroke-dasharray:none;stroke-opacity:1" transform="rotate(-18.499 18.568 28.998)"/><path d="M6.783 9.169v1.618" style="fill:none;stroke:#d67a00;stroke-width:.529167;stroke-linecap:round;stroke-linejoin:miter;stroke-dasharray:none;stroke-opacity:1" transform="rotate(-173 6.29 12.956)"/><path d="M6.783 11.648v.74" style="fill:none;stroke:#d67a00;stroke-width:.529169;stroke-linecap:round;stroke-linejoin:miter;stroke-dasharray:none;stroke-opacity:1" transform="rotate(-173 6.29 12.956)"/><path d="M6.783 9.169v1.618" style="fill:none;stroke:#d67a00;stroke-width:.529167;stroke-linecap:round;stroke-linejoin:miter;stroke-dasharray:none;stroke-opacity:1" transform="scale(-1 1)rotate(-18.499 13.984 55.013)"/><path d="M6.783 11.648v.74" style="fill:none;stroke:#d67a00;stroke-width:.529169;stroke-linecap:round;stroke-linejoin:miter;stroke-dasharray:none;stroke-opacity:1" transform="scale(-1 1)rotate(-18.499 13.984 55.013)"/><rect width="3.527" height="2.117" x="12.039" y="16.933" ry="0" style="fill:none;fill-opacity:1;stroke:#d67a00;stroke-width:.793752;stroke-linecap:round;stroke-linejoin:round;stroke-miterlimit:2;stroke-dasharray:none;stroke-opacity:1;paint-order:markers stroke fill"/><rect width="3.527" height="1.191" x="2.294" y="17.859" ry="0" style="fill:none;fill-opacity:1;stroke:#d67a00;stroke-width:.793755;stroke-linecap:round;stroke-linejoin:round;stroke-miterlimit:2;stroke-dasharray:none;stroke-opacity:1;paint-order:markers stroke fill"/></svg>