<svg xmlns="http://www.w3.org/2000/svg" width="160" height="160" viewBox="0 0 21.167 21.167"><rect width="6.35" height="13.229" x="12.673" y="-17.875" ry=".855" style="fill:none;fill-opacity:1;stroke:#d67a00;stroke-width:1.05833;stroke-linecap:round;stroke-linejoin:round;stroke-miterlimit:2;stroke-dasharray:none;stroke-opacity:1;paint-order:markers stroke fill" transform="scale(1 -1)"/><path d="M15.728-15.847a.53.575 0 0 1 .635.426.53.575 0 0 1-.387.693.53.575 0 0 1-.64-.416.53.575 0 0 1 .377-.7" style="fill:none;stroke:#d67a00;stroke-width:.529166;stroke-linecap:round;stroke-linejoin:round;stroke-miterlimit:28;stroke-dasharray:none;paint-order:markers stroke fill" transform="scale(1 -1)"/><path d="M1.614 13.88c.19 1.103.92 1.907 1.686 2.005 2.057.264 2.36-1.171 2.416-1.428M7.69 17.68c.601.398 1.304.369 1.785.202 1.418-.493.92-2.08.82-2.322M10.77 14.374c.6-.4.848-1.058.882-1.566.099-1.498-1.557-1.657-1.82-1.66M9.52 14.1c.09.76-.25 1.437-.754 1.662-1.356.602-1.85-.272-1.939-.428M4.835 16.294c.112.606.548 1.047 1.004 1.1 1.225.146 1.405-.642 1.438-.783M1.885 12.651c-.233-.57-.106-1.176.247-1.468.951-.786 1.53-.222 1.634-.122" style="fill:none;stroke:#d67a00;stroke-width:.529167;stroke-linecap:round;stroke-linejoin:miter;stroke-dasharray:none;stroke-opacity:1"/><rect width="1.426" height="2.457" x="5.637" y="2.935" ry=".156" style="fill:none;fill-opacity:1;stroke:#d67a00;stroke-width:.79375;stroke-linecap:round;stroke-linejoin:round;stroke-miterlimit:2;stroke-dasharray:none;stroke-opacity:1;paint-order:markers stroke fill"/><path d="M5.132 5.43h2.515c.133 0 .215.11.24.239l.503 2.528c.026.129-.867.314-1.646.306L5.727 8.49c-.605-.006-1.447-.12-1.418-.249l.583-2.573c.03-.129.107-.238.24-.238" style="fill:none;stroke:#d67a00;stroke-width:.79375;stroke-linecap:round;stroke-linejoin:round;stroke-miterlimit:28;stroke-dasharray:none;paint-order:markers stroke fill"/><path d="M6.35 13.772v-1.619" style="fill:none;stroke:#d67a00;stroke-width:.529167;stroke-linecap:round;stroke-linejoin:miter;stroke-dasharray:none;stroke-opacity:1"/><path d="M6.35 10.395v-.74" style="fill:none;stroke:#d67a00;stroke-width:.529169;stroke-linecap:round;stroke-linejoin:miter;stroke-dasharray:none;stroke-opacity:1"/><path d="M14.62 2.657v-.74M17.49 2.657v-.74" style="fill:none;stroke:#d67a00;stroke-width:.529169;stroke-linecap:round;stroke-linejoin:miter;stroke-dasharray:none;stroke-opacity:1" transform="translate(-.206 1.48)"/><path d="M6.783 9.169v1.618" style="fill:none;stroke:#d67a00;stroke-width:.529167;stroke-linecap:round;stroke-linejoin:miter;stroke-dasharray:none;stroke-opacity:1" transform="rotate(7.05 2.828 -3.012)"/><path d="M6.783 11.648v.74" style="fill:none;stroke:#d67a00;stroke-width:.529169;stroke-linecap:round;stroke-linejoin:miter;stroke-dasharray:none;stroke-opacity:1" transform="rotate(7.05 2.828 -3.012)"/><path d="m2.734 13.83.513-1.535" style="fill:none;stroke:#d67a00;stroke-width:.529167;stroke-linecap:round;stroke-linejoin:miter;stroke-dasharray:none;stroke-opacity:1"/><path d="m3.991 10.043.235-.702" style="fill:none;stroke:#d67a00;stroke-width:.529169;stroke-linecap:round;stroke-linejoin:miter;stroke-dasharray:none;stroke-opacity:1"/><path d="M6.783 9.169v1.618" style="fill:none;stroke:#d67a00;stroke-width:.529167;stroke-linecap:round;stroke-linejoin:miter;stroke-dasharray:none;stroke-opacity:1" transform="scale(-1 1)rotate(7 -4.417 -106.05)"/><path d="M6.783 11.648v.74" style="fill:none;stroke:#d67a00;stroke-width:.529169;stroke-linecap:round;stroke-linejoin:miter;stroke-dasharray:none;stroke-opacity:1" transform="scale(-1 1)rotate(7 -4.417 -106.05)"/><path d="M6.783 9.169v1.618" style="fill:none;stroke:#d67a00;stroke-width:.529167;stroke-linecap:round;stroke-linejoin:miter;stroke-dasharray:none;stroke-opacity:1" transform="rotate(161.501 7.868 11.058)"/><path d="M6.783 11.648v.74" style="fill:none;stroke:#d67a00;stroke-width:.529169;stroke-linecap:round;stroke-linejoin:miter;stroke-dasharray:none;stroke-opacity:1" transform="rotate(161.501 7.868 11.058)"/></svg>