<?xml version="1.0" encoding="UTF-8" standalone="no"?>
<!-- Created with Inkscape (http://www.inkscape.org/) -->

<svg
   width="160"
   height="160"
   viewBox="0 0 21.166666 21.166665"
   version="1.1"
   id="svg2918"
   xmlns="http://www.w3.org/2000/svg"
   xmlns:svg="http://www.w3.org/2000/svg">
  <defs
     id="defs2915" />
  <g
     id="g22003"
     transform="matrix(1.2538913,0,0,1.2613051,-4.0381186,-3.4327843)"
     style="stroke-width:0.79517">
    <path
       style="fill:none;stroke:#d67a00;stroke-width:0.841552;stroke-linecap:round;stroke-linejoin:round;stroke-miterlimit:28;stroke-dasharray:none;paint-order:markers stroke fill"
       id="path8397"
       d="m 9.7892105,11.907945 a 2.6460989,2.6447544 0 0 1 3.7421485,0" />
    <path
       style="fill:none;stroke:#d67a00;stroke-width:0.841552;stroke-linecap:round;stroke-linejoin:round;stroke-miterlimit:28;stroke-dasharray:none;paint-order:markers stroke fill"
       id="path8397-5"
       d="m 8.2925536,10.411204 a 4.7633185,4.7611012 0 0 1 6.7363494,0" />
    <path
       style="fill:none;stroke:#d67a00;stroke-width:0.841552;stroke-linecap:round;stroke-linejoin:round;stroke-miterlimit:28;stroke-dasharray:none;paint-order:markers stroke fill"
       id="path8397-5-4"
       d="m 6.806392,8.9255003 a 6.8651991,6.862112 0 0 1 9.708858,-3e-7" />
    <path
       style="fill:#d67a00;fill-opacity:1;stroke:none;stroke-width:0.838189;stroke-linecap:round;stroke-linejoin:round;stroke-miterlimit:28;stroke-opacity:1;paint-order:markers stroke fill"
       id="path4600"
       d="m 11.480137,-14.28655 a 0.79374993,0.79374993 0 0 1 0.951861,0.587302 0.79374993,0.79374993 0 0 1 -0.580401,0.956084 0.79374993,0.79374993 0 0 1 -0.960258,-0.573471 0.79374993,0.79374993 0 0 1 0.566511,-0.96438"
       transform="scale(1,-1)" />
  </g>
</svg>
