<?xml version="1.0" encoding="UTF-8" standalone="no"?>
<!-- Created with Inkscape (http://www.inkscape.org/) -->

<svg
   width="160"
   height="160"
   viewBox="0 0 21.166666 21.166665"
   version="1.1"
   id="svg2918"
   xmlns="http://www.w3.org/2000/svg"
   xmlns:svg="http://www.w3.org/2000/svg">
  <defs
     id="defs2915" />
  <rect
     style="fill:none;fill-opacity:1;stroke:#d67a00;stroke-width:0.529167;stroke-linecap:round;stroke-linejoin:round;stroke-miterlimit:2;stroke-dasharray:none;stroke-opacity:1;paint-order:markers stroke fill"
     id="rect989-7-2-3-7-4"
     width="12.170833"
     height="2.1166697"
     x="5.2916698"
     y="5.1222115"
     ry="0" />
  <rect
     style="fill:none;fill-opacity:1;stroke:#d67a00;stroke-width:1.05833;stroke-linecap:round;stroke-linejoin:round;stroke-miterlimit:2;stroke-dasharray:none;stroke-opacity:1;paint-order:markers stroke fill"
     id="rect989-7-2-3-7"
     width="12.170836"
     height="14.287502"
     x="5.2916646"
     y="4.9240518"
     ry="0" />
  <path
     style="fill:none;stroke:#d67a00;stroke-width:0.79374996;stroke-linecap:round;stroke-linejoin:round;stroke-miterlimit:28;stroke-dasharray:none;paint-order:markers stroke fill"
     id="path6432"
     d="m 9.4862998,12.490794 a 2.1165342,2.1165278 0 0 1 2.5381392,1.566035 2.1165342,2.1165278 0 0 1 -1.547641,2.549392 2.1165342,2.1165278 0 0 1 -2.560527,-1.529156 2.1165342,2.1165278 0 0 1 1.5106011,-2.571513" />
  <path
     style="fill:none;stroke:#d67a00;stroke-width:0.52916664;stroke-linecap:round;stroke-linejoin:round;stroke-miterlimit:28;stroke-dasharray:none;paint-order:markers stroke fill"
     id="path6432-0"
     d="m 13.782475,14.579648 a 1.0581695,1.0597349 0 0 1 1.268952,0.784106 1.0581695,1.0597349 0 0 1 -0.773749,1.276468 1.0581695,1.0597349 0 0 1 -1.280145,-0.765641 1.0581695,1.0597349 0 0 1 0.755231,-1.287543" />
  <path
     style="fill:none;stroke:#d67a00;stroke-width:0.529167;stroke-linecap:butt;stroke-linejoin:round;stroke-dasharray:none;stroke-opacity:1"
     d="m 6.6289689,15.345832 v 2.162769 h 9.5249991 v -2.162769"
     id="path4345" />
  <path
     style="fill:none;stroke:#d67a00;stroke-width:0.529166;stroke-linecap:round;stroke-linejoin:miter;stroke-dasharray:none;stroke-opacity:1"
     d="M 7.5968014,6.188559 H 6.6145824"
     id="path8403-1" />
  <path
     style="fill:none;stroke:#d67a00;stroke-width:1.05833327;stroke-linecap:round;stroke-linejoin:miter;stroke-dasharray:none;stroke-opacity:1"
     d="M 11.868196,7.5563202 H 10.885977"
     id="path8403-1-6" />
</svg>
