<svg width="900" height="900" xmlns="http://www.w3.org/2000/svg" style="background:#fff;font-family:sans-serif">
  <style>
    .label { font-size: 14px; fill: #222; }
    .hex { font-size: 12px; fill: #555; }
    .title { font-size: 18px; font-weight: bold; fill: #222; }
  </style>
  <text x="20" y="30" class="title">Original Colors</text>
  <!-- Row 1: Brights -->
  <rect x="20" y="50" width="60" height="60" fill="#FF9912"/>
  <text x="90" y="75" class="label">marigoldPetal</text>
  <text x="90" y="95" class="hex">#FF9912</text>

  <rect x="250" y="50" width="60" height="60" fill="#FFC200"/>
  <text x="320" y="75" class="label">marigoldGold</text>
  <text x="320" y="95" class="hex">#FFC200</text>

  <rect x="480" y="50" width="60" height="60" fill="#E8680E"/>
  <text x="550" y="75" class="label">marigoldAmber</text>
  <text x="550" y="95" class="hex">#E8680E</text>

  <rect x="20" y="130" width="60" height="60" fill="#C83C00"/>
  <text x="90" y="155" class="label">marigoldRust</text>
  <text x="90" y="175" class="hex">#C83C00</text>

  <rect x="250" y="130" width="60" height="60" fill="#F74600"/>
  <text x="320" y="155" class="label">marigoldRed</text>
  <text x="320" y="175" class="hex">#F74600</text>

  <!-- Row 2: Darks -->
  <rect x="20" y="210" width="60" height="60" fill="#A85000"/>
  <text x="90" y="235" class="label">marigoldCenter</text>
  <text x="90" y="255" class="hex">#A85000</text>

  <rect x="250" y="210" width="60" height="60" fill="#D67A00"/>
  <text x="320" y="235" class="label">marigoldBrown</text>
  <text x="320" y="255" class="hex">#D67A00</text>

  <rect x="480" y="210" width="60" height="60" fill="#005145"/>
  <text x="550" y="235" class="label">marigoldLeaf</text>
  <text x="550" y="255" class="hex">#005145</text>

  <rect x="20" y="290" width="60" height="60" fill="#BDDBA3"/>
  <text x="90" y="315" class="label">marigoldLeafLight</text>
  <text x="90" y="335" class="hex">#BDDBA3</text>

  <rect x="250" y="290" width="60" height="60" fill="#2C783C"/>
  <text x="320" y="315" class="label">marigoldStem</text>
  <text x="320" y="335" class="hex">#2C783C</text>

  <rect x="480" y="290" width="60" height="60" fill="#444444"/>
  <text x="550" y="315" class="label">marigoldSlate</text>
  <text x="550" y="335" class="hex">#444444</text>

  <!-- Row 3: Neutrals -->
  <rect x="20" y="370" width="60" height="60" fill="#78B4EB"/>
  <text x="90" y="395" class="label">marigoldSky</text>
  <text x="90" y="415" class="hex">#78B4EB</text>

  <rect x="250" y="370" width="60" height="60" fill="#F0F5FA"/>
  <text x="320" y="395" class="label">marigoldCloud</text>
  <text x="320" y="415" class="hex">#F0F5FA</text>

  <rect x="480" y="370" width="60" height="60" fill="#828282"/>
  <text x="550" y="395" class="label">marigoldPath</text>
  <text x="550" y="415" class="hex">#828282</text>

  <!-- Row 4: Dark mode/neutral -->
  <rect x="20" y="450" width="60" height="60" fill="#242428"/>
  <text x="90" y="475" class="label">marigoldEggplant</text>
  <text x="90" y="495" class="hex">#242428</text>

  <rect x="250" y="450" width="60" height="60" fill="#18181C"/>
  <text x="320" y="475" class="label">marigoldNight</text>
  <text x="320" y="495" class="hex">#18181C</text>

  <rect x="480" y="450" width="60" height="60" fill="#EBE6FF"/>
  <text x="550" y="475" class="label">marigoldMist</text>
  <text x="550" y="495" class="hex">#EBE6FF</text>

  <rect x="650" y="450" width="60" height="60" fill="#B4B4C8"/>
  <text x="720" y="475" class="label">marigoldFog</text>
  <text x="720" y="495" class="hex">#B4B4C8</text>

  <!-- Desaturated Colors Title -->
  <text x="20" y="540" class="title">Desaturated Colors</text>

  <!-- Row 5: Desaturated Brights -->
  <rect x="20" y="560" width="60" height="60" fill="#E0AA61"/>
  <text x="90" y="585" class="label">marigoldPetalDesaturated</text>
  <text x="90" y="605" class="hex">#E0AA61</text>

  <rect x="250" y="560" width="60" height="60" fill="#E0C861"/>
  <text x="320" y="585" class="label">marigoldGoldDesaturated</text>
  <text x="320" y="605" class="hex">#E0C861</text>

  <rect x="480" y="560" width="60" height="60" fill="#C88C61"/>
  <text x="550" y="585" class="label">marigoldAmberDesaturated</text>
  <text x="550" y="605" class="hex">#C88C61</text>

  <rect x="20" y="640" width="60" height="60" fill="#B46E50"/>
  <text x="90" y="665" class="label">marigoldRustDesaturated</text>
  <text x="90" y="685" class="hex">#B46E50</text>

  <rect x="250" y="640" width="60" height="60" fill="#D27861"/>
  <text x="320" y="665" class="label">marigoldRedDesaturated</text>
  <text x="320" y="685" class="hex">#D27861</text>

  <!-- Row 6: Desaturated Darks -->
  <rect x="20" y="720" width="60" height="60" fill="#966E50"/>
  <text x="90" y="745" class="label">marigoldCenterDesaturated</text>
  <text x="90" y="765" class="hex">#966E50</text>

  <rect x="250" y="720" width="60" height="60" fill="#B48C61"/>
  <text x="320" y="745" class="label">marigoldBrownDesaturated</text>
  <text x="320" y="765" class="hex">#B48C61</text>

  <rect x="480" y="720" width="60" height="60" fill="#3C645A"/>
  <text x="550" y="745" class="label">marigoldLeafDesaturated</text>
  <text x="550" y="765" class="hex">#3C645A</text>

  <rect x="20" y="800" width="60" height="60" fill="#AAC8AA"/>
  <text x="90" y="825" class="label">marigoldLeafLightDesaturated</text>
  <text x="90" y="845" class="hex">#AAC8AA</text>

  <rect x="250" y="800" width="60" height="60" fill="#5A8264"/>
  <text x="320" y="825" class="label">marigoldStemDesaturated</text>
  <text x="320" y="845" class="hex">#5A8264</text>

  <rect x="480" y="800" width="60" height="60" fill="#646464"/>
  <text x="550" y="825" class="label">marigoldSlateDesaturated</text>
  <text x="550" y="845" class="hex">#646464</text>
</svg>
